<?xml version="1.0" encoding="UTF-8"?>
<svg width="66.871mm" height="26.245mm" inkscape:version="0.92.5 (0.92.5+69)" sodipodi:docname="drawing-1.svg" version="1.1" viewBox="0 0 66.871 26.245" xmlns="http://www.w3.org/2000/svg" xmlns:cc="http://creativecommons.org/ns#" xmlns:dc="http://purl.org/dc/elements/1.1/" xmlns:inkscape="http://www.inkscape.org/namespaces/inkscape" xmlns:rdf="http://www.w3.org/1999/02/22-rdf-syntax-ns#" xmlns:sodipodi="http://sodipodi.sourceforge.net/DTD/sodipodi-0.dtd">
 <defs>
  <clipPath id="clipPath3781">
   <path d="m192.37 238.09h12.92v4.199h-12.92z" inkscape:connector-curvature="0"/>
  </clipPath>
  <linearGradient id="linearGradient3791" x2="1" gradientTransform="matrix(-16.063 0 0 16.063 207.9 240.19)" gradientUnits="userSpaceOnUse">
   <stop stop-color="#f69e00" offset="0"/>
   <stop stop-color="#f62b00" offset="1"/>
  </linearGradient>
  <clipPath id="clipPath3801">
   <path d="m222.34 238.09h12.92v4.199h-12.92z" inkscape:connector-curvature="0"/>
  </clipPath>
  <linearGradient id="linearGradient3811" x2="1" gradientTransform="matrix(-21.75 0 0 21.75 238.53 240.19)" gradientUnits="userSpaceOnUse">
   <stop stop-color="#f69e00" offset="0"/>
   <stop stop-color="#f62b00" offset="1"/>
  </linearGradient>
  <clipPath id="clipPath3821">
   <path d="m288.58 265.13c-1.261-3.146 0.269-6.716 3.41-7.976 3.142-1.26 6.715 0.268 7.974 3.41 1.26 3.146-0.267 6.716-3.41 7.975-0.748 0.3-1.52 0.442-2.28 0.442-2.432 0-4.734-1.456-5.694-3.851" inkscape:connector-curvature="0"/>
  </clipPath>
  <linearGradient id="linearGradient3831" x2="1" gradientTransform="matrix(-20.5 -55.375 -55.375 20.5 305.03 291.91)" gradientUnits="userSpaceOnUse">
   <stop stop-color="#f69e00" offset="0"/>
   <stop stop-color="#f62b00" offset="1"/>
  </linearGradient>
  <clipPath id="clipPath3841">
   <path d="m295.49 287.32c-1.638-4.089 0.35-8.73 4.433-10.369 4.086-1.635 8.729 0.346 10.369 4.436 1.638 4.087-0.352 8.728-4.435 10.365-0.972 0.389-1.975 0.574-2.963 0.574-3.161 0-6.155-1.894-7.404-5.006" inkscape:connector-curvature="0"/>
  </clipPath>
  <linearGradient id="linearGradient3851" x2="1" gradientTransform="matrix(-20.501 -55.377 -55.377 20.501 305.61 291.7)" gradientUnits="userSpaceOnUse">
   <stop stop-color="#f69e00" offset="0"/>
   <stop stop-color="#f62b00" offset="1"/>
  </linearGradient>
  <clipPath id="clipPath3861">
   <path d="m287.58 247.23 1.605-0.184 13.544 32.08-3.94 1.579z" inkscape:connector-curvature="0"/>
  </clipPath>
  <linearGradient id="linearGradient3871" x2="1" gradientTransform="matrix(-20.5 -55.374 -55.374 20.5 305.18 291.85)" gradientUnits="userSpaceOnUse">
   <stop stop-color="#f69e00" offset="0"/>
   <stop stop-color="#f62b00" offset="1"/>
  </linearGradient>
  <clipPath id="clipPath3881">
   <path d="m296.42 286.94c-0.34-0.852-0.504-1.726-0.504-2.587 0-2.105 0.968-4.134 2.632-5.461l0.546-0.433-3.544-10.585-0.791 0.076c-0.168 0.017-0.329 0.025-0.487 0.024-2.037 0-3.961-1.213-4.763-3.219-0.25-0.628-0.37-1.272-0.37-1.903 0-1.753 0.913-3.432 2.448-4.376l0.677-0.418-1.865-5.572 2.286 5.417 0.775-0.125c0.27-0.043 0.54-0.064 0.81-0.064 2.037 2e-3 3.963 1.216 4.767 3.217 0.251 0.627 0.368 1.27 0.368 1.904 0 1.607-0.765 3.152-2.069 4.12l-0.631 0.47 4.293 10.166 0.776-0.125c0.371-0.06 0.744-0.088 1.116-0.09 2.765 2e-3 5.382 1.652 6.474 4.374 0.343 0.852 0.502 1.726 0.502 2.592 0 2.766-1.66 5.388-4.38 6.475-0.852 0.34-1.728 0.501-2.589 0.501-2.767 0-5.388-1.654-6.477-4.378" inkscape:connector-curvature="0"/>
  </clipPath>
  <linearGradient id="linearGradient3891" x2="1" gradientTransform="matrix(14.625 35.5 35.5 -14.625 297.62 271.55)" gradientUnits="userSpaceOnUse">
   <stop stop-color="#f69e00" offset="0"/>
   <stop stop-color="#f62b00" offset="1"/>
  </linearGradient>
  <clipPath id="clipPath3901">
   <path d="m263.07 254.1c-1.264-3.139 0.258-6.714 3.399-7.979 3.143-1.265 6.714 0.256 7.978 3.397 1.265 3.141-0.252 6.714-3.396 7.98-0.751 0.302-1.526 0.446-2.289 0.446-2.429 0-4.729-1.453-5.692-3.844" inkscape:connector-curvature="0"/>
  </clipPath>
  <linearGradient id="linearGradient3911" x2="1" gradientTransform="matrix(36.75 -16.25 -16.25 -36.75 237.3 265.72)" gradientUnits="userSpaceOnUse">
   <stop stop-color="#f69e00" offset="0"/>
   <stop stop-color="#f62b00" offset="1"/>
  </linearGradient>
  <clipPath id="clipPath3921">
   <path d="m239.87 263.44c-1.645-4.082 0.333-8.729 4.418-10.371 4.085-1.648 8.729 0.334 10.375 4.414 1.643 4.084-0.333 8.729-4.418 10.375-0.976 0.392-1.983 0.578-2.974 0.578-3.159 0-6.15-1.889-7.401-4.996" inkscape:connector-curvature="0"/>
  </clipPath>
  <linearGradient id="linearGradient3931" x2="1" gradientTransform="matrix(36.75 -16.25 -16.25 -36.75 236.98 265.02)" gradientUnits="userSpaceOnUse">
   <stop stop-color="#f69e00" offset="0"/>
   <stop stop-color="#f62b00" offset="1"/>
  </linearGradient>
  <clipPath id="clipPath3941">
   <path d="m250.9 256.36 33.459-11.265 0.187 1.603-32.061 13.6z" inkscape:connector-curvature="0"/>
  </clipPath>
  <linearGradient id="linearGradient3951" x2="1" gradientTransform="matrix(36.749 -16.25 -16.25 -36.749 237.02 265.1)" gradientUnits="userSpaceOnUse">
   <stop stop-color="#f69e00" offset="0"/>
   <stop stop-color="#f62b00" offset="1"/>
  </linearGradient>
  <clipPath id="clipPath3961">
   <path d="m240.8 263.07c-0.344-0.857-0.505-1.736-0.508-2.601 3e-3 -2.761 1.653-5.375 4.373-6.47 0.855-0.345 1.733-0.504 2.599-0.504 2.101-3e-3 4.124 0.963 5.451 2.615l0.436 0.547 10.577-3.56-0.078-0.793c-0.016-0.165-0.024-0.328-0.024-0.489 2e-3 -2.032 1.213-3.957 3.214-4.764 0.629-0.254 1.274-0.37 1.912-0.37 1.748-4e-3 3.426 0.908 4.366 2.437l0.417 0.678 5.573-1.876-5.414 2.297 0.126 0.772c0.045 0.275 0.065 0.551 0.065 0.824-2e-3 2.033-1.212 3.958-3.211 4.759-0.629 0.255-1.273 0.374-1.91 0.374-1.601 0-3.143-0.76-4.113-2.064l-0.47-0.63-10.162 4.312 0.127 0.773c0.062 0.375 0.091 0.753 0.091 1.127 0 2.762-1.645 5.377-4.364 6.469-0.855 0.346-1.733 0.507-2.601 0.507-2.762-2e-3 -5.378-1.652-6.472-4.37" inkscape:connector-curvature="0"/>
  </clipPath>
  <linearGradient id="linearGradient3971" x2="1" gradientTransform="matrix(-49.25 21.375 21.375 49.25 267.93 251.5)" gradientUnits="userSpaceOnUse">
   <stop stop-color="#f69e00" offset="0"/>
   <stop stop-color="#f62b00" offset="1"/>
  </linearGradient>
  <clipPath id="clipPath3981">
   <path d="m302.62 257.5c-3.144-1.266-4.662-4.839-3.399-7.98 1.266-3.141 4.838-4.662 7.981-3.397 3.141 1.265 4.664 4.84 3.397 7.979-0.963 2.391-3.261 3.844-5.689 3.844-0.763 0-1.539-0.144-2.29-0.446" inkscape:connector-curvature="0"/>
  </clipPath>
  <linearGradient id="linearGradient3991" x2="1" gradientTransform="matrix(-58.749 -25.874 -25.874 58.749 338.26 266.5)" gradientUnits="userSpaceOnUse">
   <stop stop-color="#f69e00" offset="0"/>
   <stop stop-color="#f62b00" offset="1"/>
  </linearGradient>
  <clipPath id="clipPath4001">
   <path d="m323.42 267.86c-4.088-1.646-6.062-6.291-4.418-10.375 1.645-4.08 6.288-6.062 10.375-4.414 4.084 1.642 6.061 6.289 4.417 10.371-1.251 3.107-4.242 4.996-7.4 4.996-0.991 0-1.999-0.186-2.974-0.578" inkscape:connector-curvature="0"/>
  </clipPath>
  <linearGradient id="linearGradient4011" x2="1" gradientTransform="matrix(-58.75 -25.875 -25.875 58.75 338.56 265.83)" gradientUnits="userSpaceOnUse">
   <stop stop-color="#f69e00" offset="0"/>
   <stop stop-color="#f62b00" offset="1"/>
  </linearGradient>
  <clipPath id="clipPath4021">
   <path d="m289.11 246.7 0.189-1.603 33.458 11.265-1.586 3.938z" inkscape:connector-curvature="0"/>
  </clipPath>
  <linearGradient id="linearGradient4031" x2="1" gradientTransform="matrix(-58.749 -25.875 -25.875 58.749 338.54 265.89)" gradientUnits="userSpaceOnUse">
   <stop stop-color="#f69e00" offset="0"/>
   <stop stop-color="#f62b00" offset="1"/>
  </linearGradient>
  <clipPath id="clipPath4041">
   <path d="m323.79 266.93c-2.72-1.095-4.364-3.707-4.367-6.469 3e-3 -0.375 0.03-0.75 0.093-1.12l0.132-0.779-10.168-4.312-0.468 0.627c-0.972 1.304-2.514 2.065-4.114 2.065-0.638 0-1.282-0.117-1.908-0.372-2.005-0.805-3.214-2.731-3.216-4.765 2e-3 -0.272 0.02-0.542 0.066-0.812l0.133-0.778-5.42-2.299 5.571 1.876 0.419-0.677c0.943-1.531 2.617-2.437 4.369-2.437 0.634 0 1.281 0.119 1.911 0.37 2 0.803 3.21 2.731 3.212 4.763 0 0.162-8e-3 0.331-0.024 0.504l-0.067 0.782 10.568 3.557 0.438-0.546c1.324-1.657 3.346-2.618 5.445-2.618 0.866 0 1.747 0.162 2.605 0.506 2.717 1.093 4.365 3.71 4.367 6.471 0 0.866-0.162 1.748-0.505 2.6-1.092 2.719-3.71 4.371-6.473 4.371-0.869 0-1.745-0.16-2.599-0.508" inkscape:connector-curvature="0"/>
  </clipPath>
  <linearGradient id="linearGradient4051" x2="1" gradientTransform="matrix(58.5 21.75 21.75 -58.5 298.64 250.15)" gradientUnits="userSpaceOnUse">
   <stop stop-color="#f69e00" offset="0"/>
   <stop stop-color="#f62b00" offset="1"/>
  </linearGradient>
  <clipPath id="clipPath4061">
   <path d="m276.68 268.2c-3.096-1.371-4.496-4.992-3.125-8.09 1.372-3.098 4.996-4.496 8.09-3.126 3.095 1.371 4.497 4.994 3.125 8.089-1.014 2.292-3.259 3.654-5.611 3.654-0.83 0-1.672-0.169-2.479-0.527" inkscape:connector-curvature="0"/>
  </clipPath>
  <linearGradient id="linearGradient4071" x2="1" gradientTransform="matrix(20.252 -46.379 -46.379 -20.252 265.92 292.92)" gradientUnits="userSpaceOnUse">
   <stop stop-color="#f69e00" offset="0"/>
   <stop stop-color="#f62b00" offset="1"/>
  </linearGradient>
  <clipPath id="clipPath4081">
   <path d="m266.56 291.06c-4.024-1.782-5.845-6.492-4.063-10.518 1.783-4.029 6.494-5.844 10.519-4.065 4.023 1.782 5.845 6.492 4.062 10.518-1.32 2.978-4.24 4.748-7.299 4.748-1.077 0-2.172-0.219-3.219-0.683" inkscape:connector-curvature="0"/>
  </clipPath>
  <linearGradient id="linearGradient4091" x2="1" gradientTransform="matrix(20.25 -46.375 -46.375 -20.25 265.81 292.87)" gradientUnits="userSpaceOnUse">
   <stop stop-color="#f69e00" offset="0"/>
   <stop stop-color="#f62b00" offset="1"/>
  </linearGradient>
  <clipPath id="clipPath4101">
   <path d="m269.53 278.29 16.142-31.396 1.254 1.02-13.512 32.096z" inkscape:connector-curvature="0"/>
  </clipPath>
  <linearGradient id="linearGradient4111" x2="1" gradientTransform="matrix(20.25 -46.375 -46.375 -20.25 265.53 292.75)" gradientUnits="userSpaceOnUse">
   <stop stop-color="#f69e00" offset="0"/>
   <stop stop-color="#f62b00" offset="1"/>
  </linearGradient>
  <clipPath id="clipPath4121">
   <path d="m266.96 290.15c-2.603-1.151-4.151-3.705-4.154-6.382 3e-3 -0.94 0.192-1.894 0.601-2.817 1.152-2.605 3.704-4.146 6.38-4.15 0.288 4e-3 0.577 0.02 0.871 0.054l0.688 0.083 5.104-9.921-0.608-0.515c-1.155-0.977-1.816-2.423-1.815-3.917 0-0.691 0.139-1.394 0.441-2.072 0.848-1.915 2.724-3.047 4.693-3.049 0.415 0 0.836 0.051 1.255 0.153l0.765 0.192 2.705-5.258-2.296 5.456 0.629 0.465c1.314 0.974 2.076 2.524 2.076 4.126-2e-3 0.693-0.144 1.394-0.441 2.068-0.848 1.919-2.724 3.052-4.693 3.054-0.272 0-0.538-0.021-0.793-0.063l-0.785-0.136-4.285 10.183 0.632 0.466c1.79 1.324 2.826 3.429 2.826 5.611 0 0.942-0.192 1.897-0.597 2.813-1.152 2.607-3.708 4.153-6.384 4.156-0.944 0-1.896-0.191-2.815-0.6" inkscape:connector-curvature="0"/>
  </clipPath>
  <linearGradient id="linearGradient4131" x2="1" gradientTransform="matrix(-23 96.625 96.625 23 278.89 250.65)" gradientUnits="userSpaceOnUse">
   <stop stop-color="#f69e00" offset="0"/>
   <stop stop-color="#f62b00" offset="1"/>
  </linearGradient>
  <clipPath id="clipPath4141">
   <path d="m282.59 246.38c-0.971-2.418 0.204-5.166 2.621-6.133 2.419-0.969 5.164 0.205 6.135 2.623 0.969 2.418-0.205 5.165-2.625 6.135-0.575 0.231-1.168 0.34-1.752 0.34-1.871 0-3.641-1.121-4.379-2.965" inkscape:connector-curvature="0"/>
  </clipPath>
  <linearGradient id="linearGradient4151" x2="1" gradientTransform="matrix(0 9.3125 9.3125 0 286.97 237.26)" gradientUnits="userSpaceOnUse">
   <stop stop-color="#f69e00" offset="0"/>
   <stop stop-color="#f62b00" offset="1"/>
  </linearGradient>
  <clipPath id="clipPath4161">
   <path d="m283.52 246.01c-0.184-0.451-0.269-0.916-0.269-1.377 0-1.475 0.883-2.873 2.334-3.451 0.454-0.182 0.922-0.267 1.382-0.267 1.474 2e-3 2.873 0.881 3.454 2.33 0.181 0.46 0.268 0.926 0.268 1.386-3e-3 1.475-0.884 2.871-2.334 3.451h-6e-3c-0.452 0.186-0.916 0.268-1.378 0.268-1.472 0-2.869-0.881-3.451-2.34" inkscape:connector-curvature="0"/>
  </clipPath>
  <linearGradient id="linearGradient4171" x2="1" gradientTransform="matrix(0 -11.941 -11.941 0 286.97 250.71)" gradientUnits="userSpaceOnUse">
   <stop stop-color="#f69e00" offset="0"/>
   <stop stop-color="#f62b00" offset="1"/>
  </linearGradient>
  <mask id="mask4205" x="0" y="0" width="1" height="1" maskUnits="userSpaceOnUse">
   <g clip-path="url(#clipPath4189)">
    <g clip-path="url(#clipPath4193)">
     <g clip-path="url(#clipPath4197)">
      <path d="m308.4 285.87c-0.581-2.059-3.169-3.135-5.781-2.4-2.613 0.733-4.263 2.999-3.684 5.059 0.581 2.06 3.166 3.135 5.781 2.401 2.611-0.735 4.262-3 3.684-5.06" fill="url(#linearGradient4203)" inkscape:connector-curvature="0"/>
     </g>
    </g>
   </g>
  </mask>
  <clipPath id="clipPath4189">
   <path d="m298.82 291.16h9.697v-7.922h-9.697z" inkscape:connector-curvature="0"/>
  </clipPath>
  <clipPath id="clipPath4193">
   <path d="m298.36 291.66h10.622v-8.929h-10.622z" inkscape:connector-curvature="0"/>
  </clipPath>
  <clipPath id="clipPath4197">
   <path d="m308.4 285.87c-0.581-2.059-3.169-3.135-5.781-2.4-2.613 0.733-4.263 2.999-3.684 5.059 0.581 2.06 3.166 3.135 5.781 2.401 2.611-0.735 4.262-3 3.684-5.06" inkscape:connector-curvature="0"/>
  </clipPath>
  <linearGradient id="linearGradient4203" x2="1" gradientTransform="matrix(5.375 11.292 11.292 -5.375 303.42 286.67)" gradientUnits="userSpaceOnUse">
   <stop stop-color="#fff" offset="0"/>
   <stop stop-color="#231f20" offset="1"/>
  </linearGradient>
  <clipPath id="clipPath4235">
   <path d="m298.82 291.16h9.697v-7.922h-9.697z" inkscape:connector-curvature="0"/>
  </clipPath>
  <mask id="mask4267" x="0" y="0" width="1" height="1" maskUnits="userSpaceOnUse">
   <g clip-path="url(#clipPath4251)">
    <g clip-path="url(#clipPath4255)">
     <g clip-path="url(#clipPath4259)">
      <path d="m331.67 258.1c-1.751-1.231-4.437-0.431-5.998 1.788-1.564 2.219-1.412 5.017 0.337 6.25 1.751 1.23 4.435 0.431 5.999-1.788 1.561-2.219 1.411-5.019-0.338-6.25" fill="url(#linearGradient4265)" inkscape:connector-curvature="0"/>
     </g>
    </g>
   </g>
  </mask>
  <clipPath id="clipPath4251">
   <path d="m324.59 266.71h8.495v-9.193h-8.495z" inkscape:connector-curvature="0"/>
  </clipPath>
  <clipPath id="clipPath4255">
   <path d="m324.1 267.36h9.461v-10.499h-9.461z" inkscape:connector-curvature="0"/>
  </clipPath>
  <clipPath id="clipPath4259">
   <path d="m331.67 258.1c-1.751-1.231-4.437-0.431-5.998 1.788-1.564 2.219-1.412 5.017 0.337 6.25 1.751 1.23 4.435 0.431 5.999-1.788 1.561-2.219 1.411-5.019-0.338-6.25" inkscape:connector-curvature="0"/>
  </clipPath>
  <linearGradient id="linearGradient4265" x2="1" gradientTransform="matrix(11.298 5.3632 5.3632 -11.298 328.31 261.86)" gradientUnits="userSpaceOnUse">
   <stop stop-color="#fff" offset="0"/>
   <stop stop-color="#231f20" offset="1"/>
  </linearGradient>
  <clipPath id="clipPath4297">
   <path d="m324.59 266.71h8.495v-9.193h-8.495z" inkscape:connector-curvature="0"/>
  </clipPath>
  <mask id="mask4329" x="0" y="0" width="1" height="1" maskUnits="userSpaceOnUse">
   <g clip-path="url(#clipPath4313)">
    <g clip-path="url(#clipPath4317)">
     <g clip-path="url(#clipPath4321)">
      <path d="m298.23 264.02c-0.378-1.345-2.069-2.047-3.776-1.568-1.706 0.479-2.784 1.959-2.406 3.305 0.38 1.345 2.068 2.048 3.776 1.567 1.705-0.479 2.784-1.959 2.406-3.304" fill="url(#linearGradient4327)" inkscape:connector-curvature="0"/>
     </g>
    </g>
   </g>
  </mask>
  <clipPath id="clipPath4313">
   <path d="m291.97 267.47h6.333v-5.175h-6.333z" inkscape:connector-curvature="0"/>
  </clipPath>
  <clipPath id="clipPath4317">
   <path d="m291.67 267.8h6.938v-5.832h-6.938z" inkscape:connector-curvature="0"/>
  </clipPath>
  <clipPath id="clipPath4321">
   <path d="m298.23 264.02c-0.378-1.345-2.069-2.047-3.776-1.568-1.706 0.479-2.784 1.959-2.406 3.305 0.38 1.345 2.068 2.048 3.776 1.567 1.705-0.479 2.784-1.959 2.406-3.304" inkscape:connector-curvature="0"/>
  </clipPath>
  <linearGradient id="linearGradient4327" x2="1" gradientTransform="matrix(3.5107 7.3754 7.3754 -3.5107 294.98 264.54)" gradientUnits="userSpaceOnUse">
   <stop stop-color="#fff" offset="0"/>
   <stop stop-color="#231f20" offset="1"/>
  </linearGradient>
  <clipPath id="clipPath4359">
   <path d="m291.97 267.47h6.333v-5.175h-6.333z" inkscape:connector-curvature="0"/>
  </clipPath>
  <mask id="mask4391" x="0" y="0" width="1" height="1" maskUnits="userSpaceOnUse">
   <g clip-path="url(#clipPath4375)">
    <g clip-path="url(#clipPath4379)">
     <g clip-path="url(#clipPath4383)">
      <path d="m308.39 249.79c-1.291-0.533-2.889 0.361-3.568 1.999-0.678 1.637-0.181 3.399 1.111 3.935 1.291 0.533 2.887-0.36 3.566-1.999 0.678-1.637 0.182-3.4-1.109-3.935" fill="url(#linearGradient4389)" inkscape:connector-curvature="0"/>
     </g>
    </g>
   </g>
  </mask>
  <clipPath id="clipPath4375">
   <path d="m304.52 255.88h5.284v-6.242h-5.284z" inkscape:connector-curvature="0"/>
  </clipPath>
  <clipPath id="clipPath4379">
   <path d="m304.14 256.26h6.033v-7h-6.033z" inkscape:connector-curvature="0"/>
  </clipPath>
  <clipPath id="clipPath4383">
   <path d="m308.39 249.79c-1.291-0.533-2.889 0.361-3.568 1.999-0.678 1.637-0.181 3.399 1.111 3.935 1.291 0.533 2.887-0.36 3.566-1.999 0.678-1.637 0.182-3.4-1.109-3.935" inkscape:connector-curvature="0"/>
  </clipPath>
  <linearGradient id="linearGradient4389" x2="1" gradientTransform="matrix(7.9682 1.8009 1.8009 -7.9682 306.79 252.68)" gradientUnits="userSpaceOnUse">
   <stop stop-color="#fff" offset="0"/>
   <stop stop-color="#231f20" offset="1"/>
  </linearGradient>
  <clipPath id="clipPath4421">
   <path d="m304.52 255.88h5.284v-6.242h-5.284z" inkscape:connector-curvature="0"/>
  </clipPath>
  <mask id="mask4453" x="0" y="0" width="1" height="1" maskUnits="userSpaceOnUse">
   <g clip-path="url(#clipPath4437)">
    <g clip-path="url(#clipPath4441)">
     <g clip-path="url(#clipPath4445)">
      <path d="m289.76 246.07c3e-3 -1.2-1.23-2.176-2.753-2.184-1.521-5e-3 -2.76 0.965-2.765 2.167-3e-3 1.2 1.227 2.178 2.752 2.182 1.523 5e-3 2.762-0.962 2.766-2.165" fill="url(#linearGradient4451)" inkscape:connector-curvature="0"/>
     </g>
    </g>
   </g>
  </mask>
  <clipPath id="clipPath4437">
   <path d="m284.24 248.23h5.518v-4.349h-5.518z" inkscape:connector-curvature="0"/>
  </clipPath>
  <clipPath id="clipPath4441">
   <path d="m284.23 248.24h5.524v-4.359h-5.524z" inkscape:connector-curvature="0"/>
  </clipPath>
  <clipPath id="clipPath4445">
   <path d="m289.76 246.07c3e-3 -1.2-1.23-2.176-2.753-2.184-1.521-5e-3 -2.76 0.965-2.765 2.167-3e-3 1.2 1.227 2.178 2.752 2.182 1.523 5e-3 2.762-0.962 2.766-2.165" inkscape:connector-curvature="0"/>
  </clipPath>
  <linearGradient id="linearGradient4451" x2="1" gradientTransform="matrix(1.1663 6.922 6.922 -1.1663 286.94 245.73)" gradientUnits="userSpaceOnUse">
   <stop stop-color="#fff" offset="0"/>
   <stop stop-color="#231f20" offset="1"/>
  </linearGradient>
  <clipPath id="clipPath4483">
   <path d="m284.24 248.23h5.518v-4.349h-5.518z" inkscape:connector-curvature="0"/>
  </clipPath>
  <mask id="mask4515" x="0" y="0" width="1" height="1" maskUnits="userSpaceOnUse">
   <g clip-path="url(#clipPath4499)">
    <g clip-path="url(#clipPath4503)">
     <g clip-path="url(#clipPath4507)">
      <path d="m264.31 285.28c0.581-2.059 3.169-3.134 5.781-2.4 2.613 0.733 4.263 2.999 3.684 5.06-0.581 2.059-3.167 3.134-5.781 2.4-2.611-0.734-4.263-3-3.684-5.06" fill="url(#linearGradient4513)" inkscape:connector-curvature="0"/>
     </g>
    </g>
   </g>
  </mask>
  <clipPath id="clipPath4499">
   <path d="m264.19 290.57h9.697v-7.922h-9.697z" inkscape:connector-curvature="0"/>
  </clipPath>
  <clipPath id="clipPath4503">
   <path d="m263.73 291.07h10.623v-8.928h-10.623z" inkscape:connector-curvature="0"/>
  </clipPath>
  <clipPath id="clipPath4507">
   <path d="m264.31 285.28c0.581-2.059 3.169-3.134 5.781-2.4 2.613 0.733 4.263 2.999 3.684 5.06-0.581 2.059-3.167 3.134-5.781 2.4-2.611-0.734-4.263-3-3.684-5.06" inkscape:connector-curvature="0"/>
  </clipPath>
  <linearGradient id="linearGradient4513" x2="1" gradientTransform="matrix(-5.375 11.292 -11.292 -5.375 269.29 286.08)" gradientUnits="userSpaceOnUse">
   <stop stop-color="#fff" offset="0"/>
   <stop stop-color="#231f20" offset="1"/>
  </linearGradient>
  <clipPath id="clipPath4545">
   <path d="m264.19 290.57h9.697v-7.922h-9.697z" inkscape:connector-curvature="0"/>
  </clipPath>
  <mask id="mask4577" x="0" y="0" width="1" height="1" maskUnits="userSpaceOnUse">
   <g clip-path="url(#clipPath4561)">
    <g clip-path="url(#clipPath4565)">
     <g clip-path="url(#clipPath4569)">
      <path d="m242.41 257.42c1.909-0.967 4.453 0.21 5.68 2.629 1.23 2.42 0.679 5.168-1.229 6.138-1.909 0.966-4.451-0.209-5.681-2.629-1.227-2.42-0.677-5.169 1.23-6.138" fill="url(#linearGradient4575)" inkscape:connector-curvature="0"/>
     </g>
    </g>
   </g>
  </mask>
  <clipPath id="clipPath4561">
   <path d="m240.52 266.53h8.22v-9.443h-8.22z" inkscape:connector-curvature="0"/>
  </clipPath>
  <clipPath id="clipPath4565">
   <path d="m239.95 267.15h9.367v-10.7h-9.367z" inkscape:connector-curvature="0"/>
  </clipPath>
  <clipPath id="clipPath4569">
   <path d="m242.41 257.42c1.909-0.967 4.453 0.21 5.68 2.629 1.23 2.42 0.679 5.168-1.229 6.138-1.909 0.966-4.451-0.209-5.681-2.629-1.227-2.42-0.677-5.169 1.23-6.138" inkscape:connector-curvature="0"/>
  </clipPath>
  <linearGradient id="linearGradient4575" x2="1" gradientTransform="matrix(-11.951 3.689 -3.689 -11.951 245.19 261.63)" gradientUnits="userSpaceOnUse">
   <stop stop-color="#fff" offset="0"/>
   <stop stop-color="#231f20" offset="1"/>
  </linearGradient>
  <clipPath id="clipPath4607">
   <path d="m240.52 266.53h8.22v-9.443h-8.22z" inkscape:connector-curvature="0"/>
  </clipPath>
  <mask id="mask4639" x="0" y="0" width="1" height="1" maskUnits="userSpaceOnUse">
   <g clip-path="url(#clipPath4623)">
    <g clip-path="url(#clipPath4627)">
     <g clip-path="url(#clipPath4631)">
      <path d="m275.24 263.89c0.449-1.324 2.175-1.936 3.854-1.367 1.678 0.567 2.677 2.102 2.229 3.426-0.45 1.324-2.173 1.937-3.853 1.367-1.678-0.568-2.678-2.102-2.23-3.426" fill="url(#linearGradient4637)" inkscape:connector-curvature="0"/>
     </g>
    </g>
   </g>
  </mask>
  <clipPath id="clipPath4623">
   <path d="m275.13 267.53h6.297v-5.219h-6.297z" inkscape:connector-curvature="0"/>
  </clipPath>
  <clipPath id="clipPath4627">
   <path d="m274.79 267.88h6.979v-5.932h-6.979z" inkscape:connector-curvature="0"/>
  </clipPath>
  <clipPath id="clipPath4631">
   <path d="m275.24 263.89c0.449-1.324 2.175-1.936 3.854-1.367 1.678 0.567 2.677 2.102 2.229 3.426-0.45 1.324-2.173 1.937-3.853 1.367-1.678-0.568-2.678-2.102-2.23-3.426" inkscape:connector-curvature="0"/>
  </clipPath>
  <linearGradient id="linearGradient4637" x2="1" gradientTransform="matrix(-3.8943 7.1815 -7.1815 -3.8943 278.46 264.58)" gradientUnits="userSpaceOnUse">
   <stop stop-color="#fff" offset="0"/>
   <stop stop-color="#231f20" offset="1"/>
  </linearGradient>
  <clipPath id="clipPath4669">
   <path d="m275.13 267.53h6.297v-5.219h-6.297z" inkscape:connector-curvature="0"/>
  </clipPath>
  <mask id="mask4701" x="0" y="0" width="1" height="1" maskUnits="userSpaceOnUse">
   <g clip-path="url(#clipPath4685)">
    <g clip-path="url(#clipPath4689)">
     <g clip-path="url(#clipPath4693)">
      <path d="m265.73 249.2c1.365-0.301 2.783 0.858 3.166 2.588 0.384 1.731-0.412 3.38-1.777 3.682-1.364 0.301-2.781-0.856-3.164-2.588-0.384-1.73 0.411-3.38 1.775-3.682" fill="url(#linearGradient4699)" inkscape:connector-curvature="0"/>
     </g>
    </g>
   </g>
  </mask>
  <clipPath id="clipPath4685">
   <path d="m263.86 255.52h5.135v-6.364h-5.135z" inkscape:connector-curvature="0"/>
  </clipPath>
  <clipPath id="clipPath4689">
   <path d="m263.57 255.77h5.709v-6.872h-5.709z" inkscape:connector-curvature="0"/>
  </clipPath>
  <clipPath id="clipPath4693">
   <path d="m265.73 249.2c1.365-0.301 2.783 0.858 3.166 2.588 0.384 1.731-0.412 3.38-1.777 3.682-1.364 0.301-2.781-0.856-3.164-2.588-0.384-1.73 0.411-3.38 1.775-3.682" inkscape:connector-curvature="0"/>
  </clipPath>
  <linearGradient id="linearGradient4699" x2="1" gradientTransform="matrix(-8.16 .38875 -.38875 -8.16 266.81 252.31)" gradientUnits="userSpaceOnUse">
   <stop stop-color="#fff" offset="0"/>
   <stop stop-color="#231f20" offset="1"/>
  </linearGradient>
  <clipPath id="clipPath4731">
   <path d="m263.86 255.52h5.135v-6.364h-5.135z" inkscape:connector-curvature="0"/>
  </clipPath>
 </defs>
 <sodipodi:namedview id="base" bordercolor="#666666" borderopacity="1.0" inkscape:current-layer="layer1" inkscape:cx="146.37019" inkscape:cy="-13.260091" inkscape:document-units="mm" inkscape:pageopacity="0.0" inkscape:pageshadow="2" inkscape:window-height="1051" inkscape:window-maximized="1" inkscape:window-width="1920" inkscape:window-x="1920" inkscape:window-y="0" inkscape:zoom="1" pagecolor="#ffffff" showgrid="false"/>
 <metadata>
  <rdf:RDF>
   <cc:Work rdf:about="">
    <dc:format>image/svg+xml</dc:format>
    <dc:type rdf:resource="http://purl.org/dc/dcmitype/StillImage"/>
    <dc:title/>
   </cc:Work>
  </rdf:RDF>
 </metadata>
 <g transform="translate(-67.106 -66.163)" inkscape:groupmode="layer" inkscape:label="Layer 1">
  <g transform="translate(-16.466 -76.755)" inkscape:export-xdpi="309.69586" inkscape:export-ydpi="309.69586">
   <g transform="matrix(.35278 0 0 -.35278 88.131 165.43)">
    <path d="m0 0v4.072h-12.894v-14.179h12.894v4.201h-8.268v5.906z" fill="#1f1f1f" inkscape:connector-curvature="0"/>
   </g>
   <g transform="matrix(.35278 0 0 -.35278 98.704 165.43)">
    <path d="m0 0v4.072h-12.894v-14.179h12.894v4.201h-8.268v5.906z" fill="#1f1f1f" inkscape:connector-curvature="0"/>
   </g>
   <g transform="matrix(.35278 0 0 -.35278 93.379 169)">
    <path d="m0 0h-12.123v23.885h4.625v-19.684h7.498z" fill="#1f1f1f" inkscape:connector-curvature="0"/>
   </g>
   <g transform="matrix(.35278 0 0 -.35278 107.75 163.07)">
    <path d="m0 0h-5.708c-0.679 0.919-1.484 1.607-2.42 2.066-0.934 0.459-1.998 0.69-3.191 0.69-0.962 0-1.874-0.182-2.739-0.541-0.863-0.361-1.629-0.887-2.296-1.574-0.711-0.723-1.26-1.557-1.648-2.502-0.388-0.948-0.583-1.919-0.583-2.912 0-2.188 0.704-4.024 2.108-5.504 1.405-1.483 3.125-2.223 5.158-2.223 1.172 0 2.224 0.218 3.159 0.656 0.935 0.436 1.692 1.073 2.271 1.903h5.725c-1.115-2.438-2.602-4.272-4.461-5.497-1.86-1.222-4.079-1.834-6.66-1.834-1.794 0-3.448 0.342-4.962 1.031-1.515 0.688-2.874 1.712-4.077 3.068-1.016 1.128-1.787 2.409-2.312 3.847-0.525 1.439-0.787 2.978-0.787 4.617 0 1.664 0.316 3.241 0.951 4.732 0.634 1.495 1.564 2.852 2.788 4.079 1.159 1.136 2.447 1.998 3.862 2.582 1.417 0.586 2.94 0.879 4.57 0.879 2.613 0 4.847-0.625 6.701-1.872 1.853-1.247 3.371-3.142 4.551-5.691" fill="#1f1f1f" inkscape:connector-curvature="0"/>
   </g>
   <g transform="matrix(.35278 0 0 -.35278 112.63 160.57)">
    <path d="m0 0v-4.199h-4.495v-19.686h-4.658v19.686h-4.495v4.199z" fill="#1f1f1f" inkscape:connector-curvature="0"/>
   </g>
   <g transform="matrix(.35278 0 0 -.35278 123.83 164.67)">
    <path d="m0 0h1.032c1.894 0 3.327 0.341 4.307 1.024 0.978 0.684 1.469 1.683 1.469 2.994 0 1.269-0.411 2.205-1.232 2.806-0.82 0.601-2.099 0.902-3.839 0.902h-1.737zm0-12.271h-4.676v23.884h5.677c1.803 0 3.145-0.062 4.026-0.188 0.88-0.126 1.632-0.331 2.255-0.615 1.357-0.635 2.39-1.521 3.101-2.658s1.066-2.472 1.066-4.003c0-1.848-0.509-3.416-1.524-4.699-1.018-1.286-2.402-2.102-4.152-2.452l5.971-9.269h-5.578l-6.166 11.089z" fill="#1f1f1f" inkscape:connector-curvature="0"/>
   </g>
   <path d="m129.17 160.57h1.6492v8.4261h-1.6492z" fill="#1f1f1f" inkscape:connector-curvature="0"/>
   <g transform="matrix(.35278 0 0 -.35278 136.5 160.57)">
    <path d="m0 0h-4.034l-9.269-23.885h4.839l6.349 17.127 6.25-17.127h5.003z" fill="#1f1f1f" inkscape:connector-curvature="0"/>
   </g>
   <g transform="matrix(.35278 0 0 -.35278 144.84 169)">
    <path d="m0 0h-12.122v23.885h4.625v-19.684h7.497z" fill="#1f1f1f" inkscape:connector-curvature="0"/>
   </g>
   <g transform="matrix(.35278 0 0 -.35278 145.26 166.38)">
    <path d="m0 0 4.266 0.016v-0.346c0-1.006 0.262-1.811 0.787-2.418 0.525-0.606 1.224-0.91 2.099-0.91 0.941 0 1.684 0.282 2.232 0.845 0.546 0.562 0.819 1.324 0.819 2.288 0 1.543-1.104 2.645-3.313 3.312-0.286 0.09-0.509 0.16-0.672 0.213-1.862 0.582-3.238 1.404-4.135 2.471-0.896 1.066-1.345 2.414-1.345 4.044 0 2.24 0.621 4.04 1.862 5.395 1.242 1.358 2.896 2.035 4.963 2.035 1.935 0 3.477-0.605 4.625-1.812 1.148-1.209 1.789-2.902 1.919-5.078h-4.233v0.197c0 0.766-0.228 1.383-0.688 1.854-0.459 0.469-1.06 0.706-1.803 0.706-0.767 0-1.371-0.242-1.813-0.724-0.444-0.48-0.665-1.137-0.665-1.967 0-0.351 0.045-0.66 0.14-0.928 0.092-0.267 0.237-0.511 0.434-0.73 0.449-0.492 1.411-0.943 2.887-1.361 0.656-0.174 1.159-0.323 1.508-0.442 1.642-0.559 2.853-1.355 3.634-2.394 0.782-1.039 1.174-2.37 1.174-3.987 0-2.463-0.684-4.439-2.051-5.931-1.368-1.493-3.184-2.238-5.446-2.238-2.132 0-3.855 0.722-5.166 2.164-1.314 1.443-1.986 3.351-2.019 5.726" fill="#1f1f1f" inkscape:connector-curvature="0"/>
   </g>
   <g transform="matrix(.35278 0 0 -.35278 119.89 161.66)">
    <path d="m0 0c-0.773 0.768-1.624 1.404-2.538 1.933-1.144-1.9-3.126-3.07-5.262-3.244 1.704-0.15 3.188-0.858 4.446-2.125 1.426-1.439 2.14-3.175 2.14-5.21 0-2.217-0.708-4.073-2.124-5.561-1.418-1.484-3.169-2.231-5.257-2.231-0.996 0-1.958 0.218-2.887 0.649-0.93 0.434-1.762 1.047-2.493 1.846-0.668 0.732-1.171 1.543-1.511 2.427-0.339 0.886-0.508 1.844-0.508 2.87 0 2.045 0.727 3.785 2.183 5.218 1.308 1.289 2.876 1.993 4.699 2.123-0.594 0.066-1.185 0.208-1.759 0.437-1.525 0.614-2.692 1.722-3.416 3.062-0.027-0.014-0.056-0.022-0.083-0.037-1.782-0.936-3.263-2.261-4.444-3.977-0.69-1.018-1.209-2.109-1.56-3.274-0.35-1.165-0.524-2.402-0.524-3.713 0-1.674 0.286-3.247 0.861-4.718 0.574-1.469 1.419-2.797 2.534-3.979 1.159-1.246 2.489-2.185 3.986-2.82 1.498-0.635 3.139-0.95 4.922-0.95 1.662 0 3.256 0.323 4.781 0.974 1.526 0.652 2.863 1.582 4.011 2.796 1.137 1.16 1.999 2.49 2.583 3.986 0.586 1.499 0.878 3.102 0.878 4.807 0 1.643-0.311 3.206-0.934 4.691-0.623 1.489-1.532 2.829-2.724 4.02" fill="#1f1f1f" inkscape:connector-curvature="0"/>
   </g>
   <g transform="matrix(.35278 0 0 -.35278 15.71 246.04)">
    <g clip-path="url(#clipPath3781)">
     <path d="m192.37 238.09h12.92v4.199h-12.92z" fill="url(#linearGradient3791)" inkscape:connector-curvature="0"/>
    </g>
   </g>
   <g transform="matrix(.35278 0 0 -.35278 15.71 246.04)">
    <g clip-path="url(#clipPath3801)">
     <path d="m222.34 238.09h12.92v4.199h-12.92z" fill="url(#linearGradient3811)" inkscape:connector-curvature="0"/>
    </g>
   </g>
   <g transform="matrix(.35278 0 0 -.35278 15.71 246.04)">
    <g clip-path="url(#clipPath3821)">
     <path d="m288.58 265.13c-1.261-3.146 0.269-6.716 3.41-7.976 3.142-1.26 6.715 0.268 7.974 3.41 1.26 3.146-0.267 6.716-3.41 7.975-0.748 0.3-1.52 0.442-2.28 0.442-2.432 0-4.734-1.456-5.694-3.851" fill="url(#linearGradient3831)" inkscape:connector-curvature="0"/>
    </g>
   </g>
   <g transform="matrix(.35278 0 0 -.35278 15.71 246.04)">
    <g clip-path="url(#clipPath3841)">
     <path d="m295.49 287.32c-1.638-4.089 0.35-8.73 4.433-10.369 4.086-1.635 8.729 0.346 10.369 4.436 1.638 4.087-0.352 8.728-4.435 10.365-0.972 0.389-1.975 0.574-2.963 0.574-3.161 0-6.155-1.894-7.404-5.006" fill="url(#linearGradient3851)" inkscape:connector-curvature="0"/>
    </g>
   </g>
   <g transform="matrix(.35278 0 0 -.35278 15.71 246.04)">
    <g clip-path="url(#clipPath3861)">
     <path d="m287.58 247.23 1.605-0.184 13.544 32.08-3.94 1.579z" fill="url(#linearGradient3871)" inkscape:connector-curvature="0"/>
    </g>
   </g>
   <g transform="matrix(.35278 0 0 -.35278 15.71 246.04)">
    <g clip-path="url(#clipPath3881)">
     <path d="m296.42 286.94c-0.34-0.852-0.504-1.726-0.504-2.587 0-2.105 0.968-4.134 2.632-5.461l0.546-0.433-3.544-10.585-0.791 0.076c-0.168 0.017-0.329 0.025-0.487 0.024-2.037 0-3.961-1.213-4.763-3.219-0.25-0.628-0.37-1.272-0.37-1.903 0-1.753 0.913-3.432 2.448-4.376l0.677-0.418-1.865-5.572 2.286 5.417 0.775-0.125c0.27-0.043 0.54-0.064 0.81-0.064 2.037 2e-3 3.963 1.216 4.767 3.217 0.251 0.627 0.368 1.27 0.368 1.904 0 1.607-0.765 3.152-2.069 4.12l-0.631 0.47 4.293 10.166 0.776-0.125c0.371-0.06 0.744-0.088 1.116-0.09 2.765 2e-3 5.382 1.652 6.474 4.374 0.343 0.852 0.502 1.726 0.502 2.592 0 2.766-1.66 5.388-4.38 6.475-0.852 0.34-1.728 0.501-2.589 0.501-2.767 0-5.388-1.654-6.477-4.378" fill="url(#linearGradient3891)" inkscape:connector-curvature="0"/>
    </g>
   </g>
   <g transform="matrix(.35278 0 0 -.35278 15.71 246.04)">
    <g clip-path="url(#clipPath3901)">
     <path d="m263.07 254.1c-1.264-3.139 0.258-6.714 3.399-7.979 3.143-1.265 6.714 0.256 7.978 3.397 1.265 3.141-0.252 6.714-3.396 7.98-0.751 0.302-1.526 0.446-2.289 0.446-2.429 0-4.729-1.453-5.692-3.844" fill="url(#linearGradient3911)" inkscape:connector-curvature="0"/>
    </g>
   </g>
   <g transform="matrix(.35278 0 0 -.35278 15.71 246.04)">
    <g clip-path="url(#clipPath3921)">
     <path d="m239.87 263.44c-1.645-4.082 0.333-8.729 4.418-10.371 4.085-1.648 8.729 0.334 10.375 4.414 1.643 4.084-0.333 8.729-4.418 10.375-0.976 0.392-1.983 0.578-2.974 0.578-3.159 0-6.15-1.889-7.401-4.996" fill="url(#linearGradient3931)" inkscape:connector-curvature="0"/>
    </g>
   </g>
   <g transform="matrix(.35278 0 0 -.35278 15.71 246.04)">
    <g clip-path="url(#clipPath3941)">
     <path d="m250.9 256.36 33.459-11.265 0.187 1.603-32.061 13.6z" fill="url(#linearGradient3951)" inkscape:connector-curvature="0"/>
    </g>
   </g>
   <g transform="matrix(.35278 0 0 -.35278 15.71 246.04)">
    <g clip-path="url(#clipPath3961)">
     <path d="m240.8 263.07c-0.344-0.857-0.505-1.736-0.508-2.601 3e-3 -2.761 1.653-5.375 4.373-6.47 0.855-0.345 1.733-0.504 2.599-0.504 2.101-3e-3 4.124 0.963 5.451 2.615l0.436 0.547 10.577-3.56-0.078-0.793c-0.016-0.165-0.024-0.328-0.024-0.489 2e-3 -2.032 1.213-3.957 3.214-4.764 0.629-0.254 1.274-0.37 1.912-0.37 1.748-4e-3 3.426 0.908 4.366 2.437l0.417 0.678 5.573-1.876-5.414 2.297 0.126 0.772c0.045 0.275 0.065 0.551 0.065 0.824-2e-3 2.033-1.212 3.958-3.211 4.759-0.629 0.255-1.273 0.374-1.91 0.374-1.601 0-3.143-0.76-4.113-2.064l-0.47-0.63-10.162 4.312 0.127 0.773c0.062 0.375 0.091 0.753 0.091 1.127 0 2.762-1.645 5.377-4.364 6.469-0.855 0.346-1.733 0.507-2.601 0.507-2.762-2e-3 -5.378-1.652-6.472-4.37" fill="url(#linearGradient3971)" inkscape:connector-curvature="0"/>
    </g>
   </g>
   <g transform="matrix(.35278 0 0 -.35278 15.71 246.04)">
    <g clip-path="url(#clipPath3981)">
     <path d="m302.62 257.5c-3.144-1.266-4.662-4.839-3.399-7.98 1.266-3.141 4.838-4.662 7.981-3.397 3.141 1.265 4.664 4.84 3.397 7.979-0.963 2.391-3.261 3.844-5.689 3.844-0.763 0-1.539-0.144-2.29-0.446" fill="url(#linearGradient3991)" inkscape:connector-curvature="0"/>
    </g>
   </g>
   <g transform="matrix(.35278 0 0 -.35278 15.71 246.04)">
    <g clip-path="url(#clipPath4001)">
     <path d="m323.42 267.86c-4.088-1.646-6.062-6.291-4.418-10.375 1.645-4.08 6.288-6.062 10.375-4.414 4.084 1.642 6.061 6.289 4.417 10.371-1.251 3.107-4.242 4.996-7.4 4.996-0.991 0-1.999-0.186-2.974-0.578" fill="url(#linearGradient4011)" inkscape:connector-curvature="0"/>
    </g>
   </g>
   <g transform="matrix(.35278 0 0 -.35278 15.71 246.04)">
    <g clip-path="url(#clipPath4021)">
     <path d="m289.11 246.7 0.189-1.603 33.458 11.265-1.586 3.938z" fill="url(#linearGradient4031)" inkscape:connector-curvature="0"/>
    </g>
   </g>
   <g transform="matrix(.35278 0 0 -.35278 15.71 246.04)">
    <g clip-path="url(#clipPath4041)">
     <path d="m323.79 266.93c-2.72-1.095-4.364-3.707-4.367-6.469 3e-3 -0.375 0.03-0.75 0.093-1.12l0.132-0.779-10.168-4.312-0.468 0.627c-0.972 1.304-2.514 2.065-4.114 2.065-0.638 0-1.282-0.117-1.908-0.372-2.005-0.805-3.214-2.731-3.216-4.765 2e-3 -0.272 0.02-0.542 0.066-0.812l0.133-0.778-5.42-2.299 5.571 1.876 0.419-0.677c0.943-1.531 2.617-2.437 4.369-2.437 0.634 0 1.281 0.119 1.911 0.37 2 0.803 3.21 2.731 3.212 4.763 0 0.162-8e-3 0.331-0.024 0.504l-0.067 0.782 10.568 3.557 0.438-0.546c1.324-1.657 3.346-2.618 5.445-2.618 0.866 0 1.747 0.162 2.605 0.506 2.717 1.093 4.365 3.71 4.367 6.471 0 0.866-0.162 1.748-0.505 2.6-1.092 2.719-3.71 4.371-6.473 4.371-0.869 0-1.745-0.16-2.599-0.508" fill="url(#linearGradient4051)" inkscape:connector-curvature="0"/>
    </g>
   </g>
   <g transform="matrix(.35278 0 0 -.35278 15.71 246.04)">
    <g clip-path="url(#clipPath4061)">
     <path d="m276.68 268.2c-3.096-1.371-4.496-4.992-3.125-8.09 1.372-3.098 4.996-4.496 8.09-3.126 3.095 1.371 4.497 4.994 3.125 8.089-1.014 2.292-3.259 3.654-5.611 3.654-0.83 0-1.672-0.169-2.479-0.527" fill="url(#linearGradient4071)" inkscape:connector-curvature="0"/>
    </g>
   </g>
   <g transform="matrix(.35278 0 0 -.35278 15.71 246.04)">
    <g clip-path="url(#clipPath4081)">
     <path d="m266.56 291.06c-4.024-1.782-5.845-6.492-4.063-10.518 1.783-4.029 6.494-5.844 10.519-4.065 4.023 1.782 5.845 6.492 4.062 10.518-1.32 2.978-4.24 4.748-7.299 4.748-1.077 0-2.172-0.219-3.219-0.683" fill="url(#linearGradient4091)" inkscape:connector-curvature="0"/>
    </g>
   </g>
   <g transform="matrix(.35278 0 0 -.35278 15.71 246.04)">
    <g clip-path="url(#clipPath4101)">
     <path d="m269.53 278.29 16.142-31.396 1.254 1.02-13.512 32.096z" fill="url(#linearGradient4111)" inkscape:connector-curvature="0"/>
    </g>
   </g>
   <g transform="matrix(.35278 0 0 -.35278 15.71 246.04)">
    <g clip-path="url(#clipPath4121)">
     <path d="m266.96 290.15c-2.603-1.151-4.151-3.705-4.154-6.382 3e-3 -0.94 0.192-1.894 0.601-2.817 1.152-2.605 3.704-4.146 6.38-4.15 0.288 4e-3 0.577 0.02 0.871 0.054l0.688 0.083 5.104-9.921-0.608-0.515c-1.155-0.977-1.816-2.423-1.815-3.917 0-0.691 0.139-1.394 0.441-2.072 0.848-1.915 2.724-3.047 4.693-3.049 0.415 0 0.836 0.051 1.255 0.153l0.765 0.192 2.705-5.258-2.296 5.456 0.629 0.465c1.314 0.974 2.076 2.524 2.076 4.126-2e-3 0.693-0.144 1.394-0.441 2.068-0.848 1.919-2.724 3.052-4.693 3.054-0.272 0-0.538-0.021-0.793-0.063l-0.785-0.136-4.285 10.183 0.632 0.466c1.79 1.324 2.826 3.429 2.826 5.611 0 0.942-0.192 1.897-0.597 2.813-1.152 2.607-3.708 4.153-6.384 4.156-0.944 0-1.896-0.191-2.815-0.6" fill="url(#linearGradient4131)" inkscape:connector-curvature="0"/>
    </g>
   </g>
   <g transform="matrix(.35278 0 0 -.35278 15.71 246.04)">
    <g clip-path="url(#clipPath4141)">
     <path d="m282.59 246.38c-0.971-2.418 0.204-5.166 2.621-6.133 2.419-0.969 5.164 0.205 6.135 2.623 0.969 2.418-0.205 5.165-2.625 6.135-0.575 0.231-1.168 0.34-1.752 0.34-1.871 0-3.641-1.121-4.379-2.965" fill="url(#linearGradient4151)" inkscape:connector-curvature="0"/>
    </g>
   </g>
   <g transform="matrix(.35278 0 0 -.35278 15.71 246.04)">
    <g clip-path="url(#clipPath4161)">
     <path d="m283.52 246.01c-0.184-0.451-0.269-0.916-0.269-1.377 0-1.475 0.883-2.873 2.334-3.451 0.454-0.182 0.922-0.267 1.382-0.267 1.474 2e-3 2.873 0.881 3.454 2.33 0.181 0.46 0.268 0.926 0.268 1.386-3e-3 1.475-0.884 2.871-2.334 3.451h-6e-3c-0.452 0.186-0.916 0.268-1.378 0.268-1.472 0-2.869-0.881-3.451-2.34" fill="url(#linearGradient4171)" inkscape:connector-curvature="0"/>
    </g>
   </g>
   <g transform="matrix(.35278 0 0 -.35278 15.71 246.04)">
    <g mask="url(#mask4205)">
     <g clip-path="url(#clipPath4235)">
      <g transform="translate(308.4 285.87)">
       <path d="m0 0c-0.581-2.06-3.169-3.135-5.781-2.4-2.614 0.733-4.263 2.999-3.685 5.059 0.581 2.06 3.167 3.135 5.781 2.401 2.612-0.735 4.263-3 3.685-5.06" fill="#fff" inkscape:connector-curvature="0"/>
      </g>
     </g>
    </g>
   </g>
   <g transform="matrix(.35278 0 0 -.35278 15.71 246.04)">
    <g mask="url(#mask4267)">
     <g clip-path="url(#clipPath4297)">
      <g transform="translate(331.67 258.1)">
       <path d="m0 0c-1.751-1.23-4.437-0.431-5.998 1.788-1.564 2.219-1.412 5.018 0.337 6.25 1.751 1.231 4.435 0.432 5.999-1.788 1.561-2.219 1.411-5.019-0.338-6.25" fill="#fff" inkscape:connector-curvature="0"/>
      </g>
     </g>
    </g>
   </g>
   <g transform="matrix(.35278 0 0 -.35278 15.71 246.04)">
    <g mask="url(#mask4329)">
     <g clip-path="url(#clipPath4359)">
      <g transform="translate(298.23 264.02)">
       <path d="m0 0c-0.379-1.345-2.069-2.047-3.776-1.567-1.706 0.478-2.785 1.959-2.407 3.304 0.38 1.345 2.069 2.048 3.777 1.568 1.705-0.48 2.784-1.959 2.406-3.305" fill="#fff" inkscape:connector-curvature="0"/>
      </g>
     </g>
    </g>
   </g>
   <g transform="matrix(.35278 0 0 -.35278 15.71 246.04)">
    <g mask="url(#mask4391)">
     <g clip-path="url(#clipPath4421)">
      <g transform="translate(308.39 249.79)">
       <path d="m0 0c-1.291-0.533-2.889 0.361-3.567 1.999-0.679 1.637-0.182 3.399 1.11 3.935 1.291 0.533 2.888-0.36 3.566-1.999 0.678-1.637 0.182-3.4-1.109-3.935" fill="#fff" inkscape:connector-curvature="0"/>
      </g>
     </g>
    </g>
   </g>
   <g transform="matrix(.35278 0 0 -.35278 15.71 246.04)">
    <g mask="url(#mask4453)">
     <g clip-path="url(#clipPath4483)">
      <g transform="translate(289.75 246.07)">
       <path d="m0 0c3e-3 -1.2-1.229-2.177-2.752-2.185-1.522-4e-3 -2.761 0.965-2.766 2.167-3e-3 1.201 1.227 2.178 2.752 2.183 1.523 5e-3 2.762-0.963 2.766-2.165" fill="#fff" inkscape:connector-curvature="0"/>
      </g>
     </g>
    </g>
   </g>
   <g transform="matrix(.35278 0 0 -.35278 15.71 246.04)">
    <g mask="url(#mask4515)">
     <g clip-path="url(#clipPath4545)">
      <g transform="translate(264.31 285.28)">
       <path d="m0 0c0.581-2.06 3.169-3.135 5.781-2.4 2.614 0.733 4.263 2.999 3.685 5.059-0.581 2.06-3.167 3.135-5.781 2.401-2.612-0.735-4.263-3-3.685-5.06" fill="#fff" inkscape:connector-curvature="0"/>
      </g>
     </g>
    </g>
   </g>
   <g transform="matrix(.35278 0 0 -.35278 15.71 246.04)">
    <g mask="url(#mask4577)">
     <g clip-path="url(#clipPath4607)">
      <g transform="translate(242.41 257.42)">
       <path d="M 0,0 C 1.909,-0.967 4.453,0.21 5.68,2.629 6.91,5.049 6.359,7.797 4.451,8.767 2.542,9.733 0,8.559 -1.23,6.138 -2.458,3.718 -1.907,0.969 0,0" fill="#fff" inkscape:connector-curvature="0"/>
      </g>
     </g>
    </g>
   </g>
   <g transform="matrix(.35278 0 0 -.35278 15.71 246.04)">
    <g mask="url(#mask4639)">
     <g clip-path="url(#clipPath4669)">
      <g transform="translate(275.24 263.89)">
       <path d="M 0,0 C 0.449,-1.323 2.174,-1.936 3.854,-1.367 5.532,-0.8 6.531,0.735 6.083,2.06 5.633,3.383 3.91,3.996 2.229,3.427 0.552,2.858 -0.448,1.324 0,0" fill="#fff" inkscape:connector-curvature="0"/>
      </g>
     </g>
    </g>
   </g>
   <g transform="matrix(.35278 0 0 -.35278 15.71 246.04)">
    <g mask="url(#mask4701)">
     <g clip-path="url(#clipPath4731)">
      <g transform="translate(265.73 249.2)">
       <path d="m0 0c1.364-0.301 2.782 0.857 3.166 2.588 0.384 1.73-0.412 3.38-1.777 3.682-1.365 0.3-2.782-0.856-3.165-2.588-0.383-1.73 0.412-3.38 1.776-3.682" fill="#fff" inkscape:connector-curvature="0"/>
      </g>
     </g>
    </g>
   </g>
   <g transform="matrix(.35278 0 0 -.35278 104.99 153.79)">
    <path d="m0 0c0-3.06-2.481-5.542-5.542-5.542-3.06 0-5.541 2.482-5.541 5.542s2.481 5.542 5.541 5.542c3.061 0 5.542-2.482 5.542-5.542" fill="#fff" inkscape:connector-curvature="0"/>
   </g>
   <g transform="matrix(.35278 0 0 -.35278 113.11 145.61)">
    <path d="m0 0c0-3.06-2.481-5.542-5.542-5.542-3.06 0-5.541 2.482-5.541 5.542s2.481 5.542 5.541 5.542c3.061 0 5.542-2.482 5.542-5.542" fill="#fff" inkscape:connector-curvature="0"/>
   </g>
   <g transform="matrix(.35278 0 0 -.35278 129.01 153.77)">
    <path d="m0 0c0-3.06 2.48-5.542 5.541-5.542s5.541 2.482 5.541 5.542-2.48 5.542-5.541 5.542-5.541-2.482-5.541-5.542" fill="#fff" inkscape:connector-curvature="0"/>
   </g>
   <g transform="matrix(.35278 0 0 -.35278 120.44 145.41)">
    <path d="m0 0c0-3.06 2.48-5.542 5.541-5.542s5.541 2.482 5.541 5.542-2.48 5.542-5.541 5.542-5.541-2.482-5.541-5.542" fill="#fff" inkscape:connector-curvature="0"/>
   </g>
  </g>
 </g>
</svg>
